<?xml version="1.0" encoding="utf-8"?>
<!-- Generator: Adobe Illustrator 24.1.0, SVG Export Plug-In . SVG Version: 6.00 Build 0)  -->
<svg version="1.1" id="Layer_1" xmlns="http://www.w3.org/2000/svg" xmlns:xlink="http://www.w3.org/1999/xlink" x="0px" y="0px"
	 viewBox="0 0 199 57" style="enable-background:new 0 0 199 57;" xml:space="preserve">
<style type="text/css">
	.st0{fill:#5856E0;}
	.st1{fill:#FFFFFF;}
	.st2{fill:none;stroke:#FFFFFF;stroke-width:2.3769;stroke-miterlimit:10;}
	.st3{fill:none;stroke:#5856E0;stroke-width:2;stroke-miterlimit:10;}
	.st4{fill:none;}
</style>
<g>
	<g id="Layer_1_1_">
		<circle class="st0" cx="28.5" cy="28.5" r="28.5"/>
	</g>
	<g id="Layer_2_1_">
		<g>
			<polygon class="st1" points="33.2,14.2 18,29.3 18,39 27.7,39 42.8,23.8 			"/>
			<line class="st2" x1="25.7" y1="31.3" x2="11.3" y2="45.7"/>
			<line class="st2" x1="33.7" y1="10.1" x2="47.3" y2="23.7"/>
			<line class="st2" x1="40.5" y1="16.9" x2="45.3" y2="12"/>
			<line class="st2" x1="41.6" y1="8.3" x2="49" y2="15.7"/>
			<line class="st3" x1="20.6" y1="24.8" x2="25.2" y2="29.3"/>
			<line class="st3" x1="26.2" y1="19.1" x2="30.8" y2="23.7"/>
		</g>
	</g>
</g>
<g>
	<rect x="65.1" y="4.7" class="st4" width="172.5" height="47.6"/>
	<path class="st0" d="M67.4,25.2V5.3h3.1v17.1h10.7v2.8H67.4z"/>
	<path class="st0" d="M83.7,25.2V5.3h3.1v19.9H83.7z"/>
	<path class="st0" d="M94.5,11.2v14h-3.1V5.3h2.5l11.4,14.3V5.3h3.2v19.9h-2.6L94.5,11.2z"/>
	<path class="st0" d="M112.8,25.2V5.3h3.1v10.2l9.4-10.2h3.5l-7.8,8.8l8.3,11.1h-3.5L119,16l-3.1,3.2v6H112.8z"/>
	<path class="st0" d="M131.3,25.2V5.3h7.1c1.6,0,3,0.3,4.2,0.8c1.2,0.5,2.2,1.2,3,2.1c0.8,0.9,1.4,1.9,1.8,3.1
		c0.4,1.2,0.6,2.5,0.6,3.9c0,1.5-0.2,2.9-0.7,4.1c-0.5,1.2-1.1,2.3-1.9,3.1c-0.8,0.9-1.9,1.5-3.1,2s-2.5,0.7-4,0.7H131.3z
		 M144.8,15.2c0-1-0.1-2-0.4-2.9c-0.3-0.9-0.7-1.6-1.3-2.3c-0.6-0.6-1.2-1.1-2-1.5c-0.8-0.4-1.7-0.5-2.7-0.5h-3.9v14.3h3.9
		c1,0,2-0.2,2.8-0.5c0.8-0.4,1.5-0.9,2-1.5s1-1.4,1.2-2.3S144.8,16.2,144.8,15.2z"/>
	<path class="st0" d="M151.3,25.2V5.3h3.1v19.9H151.3z"/>
	<path class="st0" d="M162.1,11.2v14H159V5.3h2.5l11.4,14.3V5.3h3.2v19.9h-2.6L162.1,11.2z"/>
	<path class="st0" d="M194.4,22.7c-1.7,1.7-3.6,2.6-5.8,2.6c-1.3,0-2.6-0.3-3.7-0.8c-1.1-0.6-2.1-1.3-3-2.2c-0.8-0.9-1.5-2-2-3.2
		c-0.5-1.2-0.7-2.5-0.7-3.9c0-1.3,0.2-2.6,0.7-3.8c0.5-1.2,1.1-2.3,2-3.2s1.8-1.6,3-2.2c1.2-0.5,2.4-0.8,3.8-0.8
		c1.9,0,3.5,0.4,4.8,1.2c1.3,0.8,2.3,1.8,2.9,3.1l-2.4,1.7c-0.5-1.1-1.3-1.9-2.2-2.4c-1-0.5-2-0.8-3.1-0.8c-0.9,0-1.8,0.2-2.5,0.6
		s-1.4,0.9-2,1.6c-0.5,0.7-1,1.4-1.2,2.3c-0.3,0.9-0.4,1.8-0.4,2.7c0,1,0.2,2,0.5,2.8c0.3,0.9,0.8,1.6,1.3,2.3s1.2,1.2,2,1.6
		c0.8,0.4,1.6,0.6,2.5,0.6c1,0,2-0.2,2.9-0.7c0.9-0.5,1.8-1.2,2.6-2.2v-2.1h-4.2v-2.3h6.8v10.1h-2.6V22.7z"/>
	<path class="st0" d="M67.4,51.2V31.3h3.1v19.9H67.4z"/>
	<path class="st0" d="M78.1,37.2v14H75V31.3h2.5l11.4,14.3V31.3H92v19.9h-2.6L78.1,37.2z"/>
	<path class="st0" d="M95.3,47.7c0.3,0.2,0.8,0.4,1.4,0.7c0.6,0.2,1.3,0.3,2.1,0.3c0.9,0,1.5-0.2,2.1-0.5c0.5-0.3,0.9-0.8,1.2-1.4
		s0.4-1.4,0.5-2.3s0.1-2,0.1-3.2V31.3h3.2v10.1c0,1.5-0.1,2.9-0.2,4.1s-0.5,2.3-1,3.2c-0.5,0.9-1.2,1.6-2.1,2s-2.2,0.7-3.8,0.7
		c-1.7,0-3.1-0.4-4.3-1.2L95.3,47.7z"/>
	<path class="st0" d="M123.8,48.4v2.8h-13.6V31.3h13.4v2.8h-10.2v5.7h8.9v2.6h-8.9v6.1H123.8z"/>
	<path class="st0" d="M125.3,41.1c0-1.2,0.2-2.4,0.6-3.6c0.4-1.2,1.1-2.2,1.9-3.2c0.8-0.9,1.8-1.7,3-2.3c1.2-0.6,2.5-0.9,4.1-0.9
		c1.8,0,3.4,0.4,4.6,1.2c1.3,0.8,2.3,1.8,2.9,3.1l-2.5,1.7c-0.3-0.6-0.6-1.1-1-1.5c-0.4-0.4-0.8-0.7-1.3-1c-0.5-0.2-1-0.4-1.5-0.5
		s-1-0.2-1.5-0.2c-1,0-2,0.2-2.7,0.6s-1.4,1-2,1.7c-0.5,0.7-0.9,1.5-1.2,2.3s-0.4,1.7-0.4,2.6c0,1,0.2,1.9,0.5,2.8
		c0.3,0.9,0.8,1.7,1.3,2.3s1.2,1.2,2,1.6s1.6,0.6,2.6,0.6c0.5,0,1-0.1,1.5-0.2c0.5-0.1,1-0.3,1.5-0.6c0.5-0.3,0.9-0.6,1.3-1
		c0.4-0.4,0.7-0.9,1-1.5l2.6,1.5c-0.3,0.7-0.8,1.4-1.3,2c-0.6,0.6-1.2,1-2,1.4c-0.7,0.4-1.5,0.7-2.3,0.9c-0.8,0.2-1.6,0.3-2.4,0.3
		c-1.4,0-2.7-0.3-3.8-0.9c-1.2-0.6-2.2-1.4-3-2.3c-0.8-1-1.5-2.1-2-3.3S125.3,42.4,125.3,41.1z"/>
	<path class="st0" d="M160.1,34.1h-6.6v17.1h-3.2V34.1h-6.6v-2.8h16.4V34.1z"/>
	<path class="st0" d="M170.1,51.3c-1.4,0-2.7-0.3-3.9-0.9c-1.2-0.6-2.2-1.3-3-2.3c-0.8-0.9-1.5-2-1.9-3.2c-0.5-1.2-0.7-2.5-0.7-3.7
		c0-1.3,0.2-2.6,0.7-3.8c0.5-1.2,1.2-2.3,2-3.2s1.9-1.7,3-2.2c1.2-0.5,2.4-0.8,3.8-0.8c1.4,0,2.7,0.3,3.9,0.9c1.2,0.6,2.2,1.4,3,2.3
		c0.8,1,1.5,2,1.9,3.2c0.5,1.2,0.7,2.4,0.7,3.7c0,1.3-0.2,2.6-0.7,3.8c-0.5,1.2-1.1,2.3-2,3.2c-0.9,0.9-1.9,1.7-3,2.2
		C172.8,51,171.5,51.3,170.1,51.3z M163.8,41.2c0,0.9,0.1,1.8,0.4,2.7c0.3,0.9,0.7,1.7,1.3,2.3c0.6,0.7,1.2,1.2,2,1.6
		c0.8,0.4,1.7,0.6,2.6,0.6c1,0,1.9-0.2,2.7-0.6c0.8-0.4,1.4-1,2-1.7c0.5-0.7,1-1.5,1.2-2.3s0.4-1.7,0.4-2.6c0-1-0.1-1.9-0.4-2.7
		s-0.7-1.6-1.3-2.3c-0.6-0.7-1.2-1.2-2-1.6c-0.8-0.4-1.6-0.6-2.6-0.6c-1,0-1.9,0.2-2.7,0.6s-1.4,1-2,1.6c-0.5,0.7-1,1.4-1.2,2.3
		C164,39.4,163.8,40.3,163.8,41.2z"/>
	<path class="st0" d="M182.9,51.2V31.3h8.7c0.9,0,1.7,0.2,2.5,0.6c0.8,0.4,1.4,0.9,1.9,1.5c0.5,0.6,1,1.3,1.3,2.1
		c0.3,0.8,0.5,1.6,0.5,2.4c0,0.7-0.1,1.3-0.3,1.9c-0.2,0.6-0.4,1.2-0.8,1.7c-0.3,0.5-0.7,1-1.2,1.4c-0.5,0.4-1,0.7-1.6,0.9l4.7,7.6
		H195l-4.3-6.9h-4.6v6.9H182.9z M186.1,41.5h5.5c0.4,0,0.9-0.1,1.2-0.3c0.4-0.2,0.7-0.5,0.9-0.8c0.3-0.3,0.5-0.7,0.6-1.2
		c0.1-0.4,0.2-0.9,0.2-1.4s-0.1-1-0.3-1.4s-0.4-0.8-0.7-1.2c-0.3-0.3-0.6-0.6-1-0.8c-0.4-0.2-0.8-0.3-1.2-0.3h-5.3V41.5z"/>
</g>
</svg>
